PathFileType	4	(X/Y/Z)	Patient4_TMGait_0pt5_01_right_38.trc.trc
DataRate	CameraRate	NumFrames	NumMarkers	Units	OrigDataRate	OrigDataStartFrame	OrigNumFrames
74.468085106383	74.468085106383	5	33	mm	74.468085106383	106	       141
Frame#	Time	L.ASIS			Sacral			L.Shoulder			Chest			R.Shoulder			Neck			R.ASIS			R.Thigh.Superior			R.Thigh.Lateral			R.Thigh.Inferior			R.Patella			L.Thigh.Superior			L.Thigh.Lateral			L.Thigh.Inferior			L.Patella			L.Shank.Superior			L.Shank.Lateral			L.Shank.Inferior			R.Shank.Superior			R.Shank.Lateral			R.Shank.Inferior			R.Heel			R.Midfoot.Superior			R.Midfoot.Lateral			R.Toe			L.Heel			L.Midfoot.Lateral			L.Midfoot.Superior			L.Toe			L.Elbow			L.Wrist			R.Elbow			R.Wrist			
		X1	Y1	Z1	X2	Y2	Z2	X3	Y3	Z3	X4	Y4	Z4	X5	Y5	Z5	X6	Y6	Z6	X7	Y7	Z7	X8	Y8	Z8	X9	Y9	Z9	X10	Y10	Z10	X11	Y11	Z11	X12	Y12	Z12	X13	Y13	Z13	X14	Y14	Z14	X15	Y15	Z15	X16	Y16	Z16	X17	Y17	Z17	X18	Y18	Z18	X19	Y19	Z19	X20	Y20	Z20	X21	Y21	Z21	X22	Y22	Z22	X23	Y23	Z23	X24	Y24	Z24	X25	Y25	Z25	X26	Y26	Z26	X27	Y27	Z27	X28	Y28	Z28	X29	Y29	Z29	X30	Y30	Z30	X31	Y31	Z31	X32	Y32	Z32	X33	Y33	Z33	

106	51.380000000000	817.523380781325	964.161760887068	287.190294671963	600.874284416488	1013.462107357609	444.829483139079	787.905325476702	1442.101840885245	272.807982658028	885.245867798670	1365.898660463449	434.865375810359	798.968976713383	1437.259357962645	609.536628579098	786.113532836707	1500.721315211996	425.357827566383	824.173824044577	947.534037409712	563.764438660212	907.861679349560	781.915442124141	534.744619316612	871.088505440729	660.732739079185	607.779103709768	960.484483032840	622.152598249862	527.373295438939	983.421158887584	510.768814310964	550.404791442995	854.137484845278	749.076281345909	320.744981902138	758.101210595956	638.029797169902	265.730525143829	835.600751012737	556.735870468498	331.119007766601	831.033567120810	487.747736536997	344.356724073042	805.515199781061	417.593154523458	337.317167687069	717.359331826032	302.733180419685	287.668198740219	763.531194432954	193.592490464312	363.789535059755	913.087839720821	432.233099144520	558.492349807501	796.164669123331	380.997582408904	617.454898052466	793.924709044169	270.465439957692	570.300933137332	600.792396670511	189.348408256431	540.702256711280	773.094170031000	146.635215500303	583.374211777661	664.102871324407	136.479416294909	615.890667252818	847.833159241991	41.961516151924	613.791174214875	630.402885273355	38.553621571711	405.380440163794	707.178173404814	35.466741259862	326.891468774804	790.360070843018	96.085041074806	355.449134642661	919.283383995104	40.686215400464	331.887117972407	832.127082004740	1107.021876356441	117.633223764881	1031.860522549666	939.058931901510	90.059771806640	735.275328876694	1092.138753727631	715.622142505662	784.257936260323	834.130396671459	718.624568905663	
107	51.393428571429	816.820358144136	964.001801247734	287.713584055531	599.708544001428	1013.842751507269	444.110841192518	789.158785964094	1442.222877316634	273.034287659289	884.923036516254	1365.819852933812	435.936656979816	797.330329425710	1437.315449728912	610.006523672495	786.104128344507	1500.845719086579	425.690859686394	822.331407720518	948.002511842787	564.386560089378	907.110793129288	784.121129930078	535.213585441703	871.974207377241	662.551896547131	608.353293503715	961.462826781183	624.951567666079	527.797040719475	986.523254072360	515.101945295857	550.954001818457	851.276195859787	748.184828977669	321.607945084748	754.172427855725	638.176632136121	265.693373399494	830.251538222655	556.076607860425	331.420911520911	824.767226773960	487.311644348402	344.654468092042	799.343202484084	417.439494502815	337.402622214038	711.058705940053	302.751624299974	287.603282070852	756.939142186871	193.542332390287	363.822258870011	919.824861808874	434.436691386953	559.054465796699	805.966345805215	377.229223334629	618.208385285256	809.326053320244	266.775211548127	570.803066136646	620.640226047865	175.616941759447	541.408940566753	794.926704893873	142.148858959546	583.723347612337	686.786151053523	126.194215331829	616.518590947530	875.245644997624	41.676116733139	613.930690492321	623.605643823194	38.540090542285	405.350865960634	700.401056956654	35.441934371452	326.875730650431	783.585486394068	96.075718206179	355.437327529206	912.512496612938	40.677480128492	331.890929395645	837.388739235185	1109.194560154248	115.926242929809	1044.112792116773	949.729711862272	88.569258182019	722.368656254892	1094.766760475072	715.513383167932	758.748220644535	834.801362376026	718.658533473090	
108	51.406857142857	816.134399974996	963.824523646210	288.497484038646	598.598331937274	1014.088599042622	443.491158477955	790.449314468637	1442.173767397793	273.416195329449	884.616288373497	1365.603947335310	437.165221458844	795.699796239839	1437.291281300203	610.604916519737	786.123383881437	1500.843744057904	426.159639243770	820.516982261301	948.268754978177	565.150834898440	905.990135264992	785.742538882766	535.846247002960	872.110665368281	663.866548707132	609.069295615223	961.572145233558	627.007163817425	528.382618145633	988.568041422579	518.953978241561	551.634786076357	848.491155897207	747.241205897047	322.578025306323	750.331855519868	638.270276632216	265.703222383414	824.972621728032	555.387918889254	331.776374866432	818.586634309556	486.855626890801	344.983177366774	793.231852987557	417.239716946839	337.531806308094	704.812493311614	302.741930530098	287.565121453321	750.367821510652	193.459538452796	363.892070019383	925.852648520387	436.307600133074	559.822408561542	815.736962315682	372.939048058530	619.402767202882	824.990477342863	262.898639361675	571.705608378467	641.683412099795	161.345150231245	542.754699616532	817.504949925249	137.785939081813	584.555961762235	710.672533612402	115.759635875440	617.752005996840	903.470019751355	42.056711879064	614.498207634834	616.822732768442	38.511929918110	405.322274859116	693.620446719205	35.410722984780	326.863390421317	776.801338468007	96.058063950686	355.445403537135	905.739073314512	40.682027006281	331.902892004860	842.314559132818	1111.236571995226	114.347727541339	1055.612775244177	960.478936163456	87.474823381993	709.461915106308	1097.640698142127	715.261855997846	734.197156215234	836.526592003299	718.624836780442	
109	51.420285714286	815.496931519019	963.646294828742	289.520655507519	597.551012948752	1014.200009370999	442.972850703796	791.762597793249	1441.961369072492	273.957705163520	884.321706384696	1365.260088330796	438.547396663330	794.082794515812	1437.193350881690	611.318021466320	786.164787292100	1500.718542247785	426.762718985500	818.749325449319	948.329061221854	566.047472648468	904.495604018982	786.734108833548	536.643949586753	871.445042930098	664.638732997829	609.938862035894	960.789346486300	628.267356337561	529.157735797944	989.524492197066	522.259621554484	552.453977303345	845.801221373655	746.245207476533	323.621568329893	746.584542307882	638.310671267406	265.761672199918	819.773954752786	554.669055958549	332.185714095684	812.513638722357	486.380634133783	345.338414727998	787.191419472957	416.995669620756	337.705653017862	698.629484396199	302.707850405127	287.552356256384	743.822120527572	193.345302590128	363.998710619783	931.098237207220	437.849894992501	560.792688594592	825.400539198019	368.252639749732	621.003989369458	840.772147478410	259.011580725864	572.969439883420	663.818054994360	146.865705429153	544.627115876185	840.607850273696	133.789596200314	585.824909250100	735.575758518447	105.488064819936	619.493421284501	932.178975873432	43.364450625982	615.468695705046	610.053356056997	38.474311057838	405.292581339597	686.836340220990	35.375694288642	326.854215180399	770.008420578742	96.031092561824	355.473483064151	898.961383848122	40.698630733353	331.922557092017	846.941014313189	1113.135793559270	112.917843896720	1066.333964057754	971.214013275202	86.771397449085	696.730437913897	1100.733870950339	714.867861871670	710.741800906001	839.100874251992	718.544438374184	
110	51.433714285714	814.944109701409	963.468228600561	290.747996592489	596.573226304794	1014.187243044932	442.553650126997	793.083420446068	1441.602917789960	274.662157547936	884.036433976621	1364.805296832717	440.077463292255	792.486545668628	1437.030559016103	612.131228554859	786.218761531873	1500.478213622542	427.499607893040	817.050911147722	948.189525606661	567.069749152671	902.633915383193	787.067937842093	537.617126382933	869.947052867392	664.850916531718	610.983425815423	959.118494509701	628.709409293331	530.158633646691	989.385793662858	524.969283748079	553.428446768792	843.222171541860	745.199707673543	324.716025524437	742.938283205486	638.301396705198	265.872800393645	814.662846317854	553.921373394942	332.654656830260	806.565588514708	485.888551388944	345.719619494505	781.229758172537	416.713003156912	337.925742549151	692.516673349396	302.656316905747	287.563550476223	737.306076706109	193.203887401833	364.139951505035	935.498891655179	439.073907835638	561.963406162796	834.846865261384	363.301359479395	622.955163548511	856.486187000425	255.275632029764	574.536339818485	686.848123599219	132.513243740501	546.874425704438	863.954074463225	130.361834669038	587.456505260039	761.216333968343	95.658748667446	621.603463961543	960.983763404043	45.778865532848	616.786454027877	603.294845650247	38.434222990617	405.260620199276	680.049149986766	35.340319198076	326.847933927525	763.208681748923	95.995149838277	355.520057247053	892.177879126846	40.725082161084	331.949342215581	851.291809167536	1114.886988354339	111.667105329363	1076.252957988238	981.842595319176	86.452581104615	684.364680645388	1104.004497844671	714.349474965533	688.519942484730	842.326015888514	718.421488343835	
